<mxfile host="65bd71144e">
    <diagram id="GJAwkbXEC2regrHjeEgt" name="Page-1">
        <mxGraphModel dx="422" dy="855" grid="1" gridSize="10" guides="1" tooltips="1" connect="1" arrows="1" fold="1" page="1" pageScale="1" pageWidth="827" pageHeight="1169" math="0" shadow="0">
            <root>
                <mxCell id="0"/>
                <mxCell id="1" parent="0"/>
                <mxCell id="2" value="" style="rounded=0;whiteSpace=wrap;html=1;fillColor=#1ba1e2;strokeColor=#006EAF;fontColor=#ffffff;shadow=0;" parent="1" vertex="1">
                    <mxGeometry x="160" y="110" width="460" height="290" as="geometry"/>
                </mxCell>
                <mxCell id="3" value="docsify" style="rounded=0;whiteSpace=wrap;html=1;fillColor=#008a00;strokeColor=#005700;shadow=0;glass=0;fontColor=#ffffff;" parent="1" vertex="1">
                    <mxGeometry x="170" y="330" width="440" height="60" as="geometry"/>
                </mxCell>
                <mxCell id="4" value="plugins" style="rounded=0;whiteSpace=wrap;html=1;fillColor=#008a00;strokeColor=#005700;shadow=0;glass=0;fontColor=#ffffff;" parent="1" vertex="1">
                    <mxGeometry x="170" y="260" width="140" height="60" as="geometry"/>
                </mxCell>
                <mxCell id="5" value="themes" style="rounded=0;whiteSpace=wrap;html=1;fillColor=#008a00;strokeColor=#005700;shadow=0;glass=0;fontColor=#ffffff;" parent="1" vertex="1">
                    <mxGeometry x="320" y="260" width="140" height="60" as="geometry"/>
                </mxCell>
                <mxCell id="6" value="themes" style="rounded=0;whiteSpace=wrap;html=1;fillColor=#008a00;strokeColor=#005700;shadow=0;glass=0;fontColor=#ffffff;" parent="1" vertex="1">
                    <mxGeometry x="470" y="260" width="140" height="60" as="geometry"/>
                </mxCell>
                <mxCell id="7" value="content" style="rounded=0;whiteSpace=wrap;html=1;fillColor=#008a00;strokeColor=#005700;shadow=0;glass=0;fontColor=#ffffff;" parent="1" vertex="1">
                    <mxGeometry x="170" y="190" width="440" height="60" as="geometry"/>
                </mxCell>
                <mxCell id="8" value="github pages" style="rounded=0;whiteSpace=wrap;html=1;fillColor=#008a00;strokeColor=#005700;shadow=0;glass=0;fontColor=#ffffff;" parent="1" vertex="1">
                    <mxGeometry x="170" y="120" width="440" height="60" as="geometry"/>
                </mxCell>
            </root>
        </mxGraphModel>
    </diagram>
</mxfile>